<svg width="54" height="54" viewBox="0 0 54 54" fill="none" xmlns="http://www.w3.org/2000/svg">
<path d="M22.9662 9.18256C24.1936 8.47763 25.5844 8.10669 27 8.10669C28.4155 8.10669 29.8063 8.47763 31.0338 9.18256L50.6223 20.4308C50.8281 20.5491 50.9991 20.7196 51.118 20.9251C51.2369 21.1306 51.2995 21.3638 51.2995 21.6012C51.2995 21.8386 51.2369 22.0718 51.118 22.2773C50.9991 22.4828 50.8281 22.6533 50.6223 22.7717L43.2 27.0323V39.1499C43.2003 39.3273 43.1656 39.503 43.098 39.667C43.0303 39.831 42.931 39.98 42.8058 40.1056L42.8004 40.1083L42.795 40.1165L42.7761 40.1327L42.714 40.1921L42.498 40.3918C42.309 40.5565 42.039 40.7887 41.6853 41.0615C40.7155 41.8061 39.6849 42.4681 38.6046 43.0406C35.0312 44.9361 31.0449 45.9192 27 45.9025C22.955 45.9192 18.9687 44.9361 15.3954 43.0406C14.3159 42.468 13.2863 41.806 12.3174 41.0615C11.9613 40.7865 11.6172 40.4964 11.286 40.1921C11.1375 40.0612 11.0177 39.9011 10.9341 39.7217C10.8505 39.5424 10.8048 39.3477 10.8 39.1499V27.0323L5.39995 23.9327V36.4499C5.39995 36.8079 5.25772 37.1513 5.00455 37.4044C4.75137 37.6576 4.40799 37.7999 4.04995 37.7999C3.69191 37.7999 3.34853 37.6576 3.09536 37.4044C2.84218 37.1513 2.69995 36.8079 2.69995 36.4499V21.5999C2.69977 21.3575 2.76486 21.1195 2.88839 20.9109C3.01191 20.7024 3.18931 20.5309 3.40195 20.4146L22.9662 9.18256ZM31.0338 34.0172C29.8063 34.7221 28.4155 35.093 27 35.093C25.5844 35.093 24.1936 34.7221 22.9662 34.0172L13.5 28.5821V38.5478C14.4831 39.3547 15.544 40.062 16.6671 40.6591C19.0431 41.9282 22.5396 43.1998 27 43.1998C30.6008 43.2182 34.1503 42.3463 37.3329 40.6618C38.4562 40.0631 39.5171 39.354 40.5 38.5451V28.5821L31.0338 34.0145V34.0172ZM29.6892 11.5262C28.8708 11.0562 27.9436 10.8089 27 10.8089C26.0563 10.8089 25.1291 11.0562 24.3108 11.5262L6.76075 21.5999L24.3108 31.6763C25.1291 32.1462 26.0563 32.3935 27 32.3935C27.9436 32.3935 28.8708 32.1462 29.6892 31.6763L47.2392 21.5999L29.6892 11.5235V11.5262Z" fill="#F49749"/>
</svg>
