<svg width="549" height="429" viewBox="0 0 549 429" fill="none" xmlns="http://www.w3.org/2000/svg">
<path opacity="0.7" d="M247.185 427.101C110.67 426.458 0.0215266 421.956 0.0446343 417.044C0.067742 412.132 110.754 408.671 247.269 409.313C383.784 409.955 494.432 414.458 494.409 419.37C494.386 424.282 383.7 427.743 247.185 427.101Z" fill="#4F5AA5"/>
<g opacity="0.5">
<path opacity="0.5" d="M249.399 150.685C249.399 150.685 258.374 82.4784 234.611 34.3154C231.453 27.9128 222.003 29.051 220.391 36.0069C220.367 36.1229 220.335 36.2388 220.312 36.3625C217.738 48.2736 242.919 107.782 249.399 150.685Z" fill="#F49749"/>
</g>
<g opacity="0.5">
<path opacity="0.5" d="M248.66 170.693C248.66 170.693 236.013 79.3579 187.712 28.034C184.771 24.9069 179.805 24.4994 176.567 27.3279C174.462 29.1727 172.883 32.4905 173.212 38.3878C174.089 54.1062 225.879 119.516 248.66 170.693Z" fill="#F49749"/>
</g>
<path d="M142.104 171.723C142.104 171.723 167.159 193.678 162.78 198.085C158.409 202.493 136.632 171.613 136.632 171.613C136.632 171.613 103.66 178.874 94.9826 187.154C94.9826 187.154 129.56 200.662 124.234 203.857C118.909 207.053 82.2756 194.673 82.2756 194.673C82.2756 194.673 54.1613 209.38 61.6337 227.018C69.1061 244.656 81.1712 246.935 85.523 244.989C89.8747 243.043 112.968 224.442 114.74 227.949C116.511 231.456 104.556 248.662 93.6296 252.83C93.6296 252.83 122.101 269.165 133.881 257.965C145.654 246.773 143.414 235.801 150.823 229.016C158.224 222.231 165.651 219.836 163.374 225.05C161.097 230.264 146.648 239.292 144.525 249.694C142.402 260.095 139.867 267.468 153.585 260.62C167.303 253.772 187.329 235.621 184.437 223.206C184.308 222.663 184.195 222.144 184.073 221.656C184.409 222.61 184.437 223.206 184.437 223.206C187.613 222.764 195.64 226.27 201.563 229.139C202.505 229.677 203.88 230.372 205.803 231.264C206.637 231.694 207.317 232.053 207.788 232.303C220.132 239.459 232.038 259.193 232.038 259.193L235.094 257.891C226.46 235.363 204.959 228.156 204.959 228.156C189.323 221.332 181.546 210.791 181.546 210.791C181.546 210.791 194.292 180.236 170.136 171.282C170.136 171.274 153.334 167.317 142.104 171.723Z" fill="#F49749"/>
<path d="M28.8999 281.366L50.4717 281.489L50.08 351.266L28.5082 351.143L28.8999 281.366Z" fill="#36498C"/>
<path d="M50.5332 281.468L102.635 281.767L102.237 351.511L50.135 351.212L50.5332 281.468Z" fill="#2D3A64"/>
<path d="M35.998 290.12C36.0094 288.125 37.6348 286.518 39.6299 286.53C41.6249 286.541 43.2241 288.167 43.2127 290.162C43.2013 292.157 41.5759 293.756 39.5886 293.745C37.5935 293.733 35.9866 292.108 35.998 290.12Z" fill="#DEE6F6"/>
<path d="M37.057 290.126C37.065 288.719 38.216 287.581 39.6234 287.589C41.0308 287.597 42.1687 288.748 42.1607 290.156C42.1526 291.563 41.0016 292.701 39.5942 292.693C38.1868 292.685 37.0489 291.534 37.057 290.126Z" fill="#6372B5"/>
<path d="M34.57 298.81L44.731 298.869L44.6265 317.242L34.4655 317.184L34.57 298.81Z" fill="#92ACDA"/>
<path d="M69.252 281.556L90.8237 281.679L90.432 351.456L68.8603 351.333L69.252 281.556Z" fill="#36498C"/>
<path d="M90.8931 281.658L142.995 281.957L142.597 351.701L90.4948 351.402L90.8931 281.658Z" fill="#2D3A64"/>
<path d="M76.3652 290.31C76.3767 288.315 78.0021 286.708 79.9971 286.72C81.9922 286.731 83.5913 288.357 83.5799 290.352C83.5685 292.347 81.9432 293.946 79.9558 293.934C77.9531 293.923 76.3539 292.297 76.3652 290.31Z" fill="#DEE6F6"/>
<path d="M77.417 290.316C77.425 288.909 78.576 287.771 79.9834 287.779C81.3907 287.787 82.5286 288.938 82.5205 290.346C82.5125 291.753 81.3615 292.891 79.9541 292.883C78.5468 292.875 77.4089 291.724 77.417 290.316Z" fill="#6372B5"/>
<path d="M74.9377 299L85.0986 299.058L84.9941 317.432L74.8333 317.374L74.9377 299Z" fill="#92ACDA"/>
<path d="M106.159 281.73L127.731 281.853L127.339 351.629L105.767 351.506L106.159 281.73Z" fill="#36498C"/>
<path d="M127.808 281.832L179.91 282.131L179.512 351.875L127.41 351.576L127.808 281.832Z" fill="#2D3A64"/>
<path d="M113.265 290.484C113.276 288.489 114.901 286.882 116.889 286.893C118.884 286.905 120.491 288.53 120.479 290.525C120.468 292.52 118.843 294.119 116.847 294.108C114.86 294.097 113.253 292.471 113.265 290.484Z" fill="#DEE6F6"/>
<path d="M114.324 290.49C114.332 289.083 115.483 287.945 116.891 287.953C118.298 287.961 119.436 289.112 119.428 290.519C119.42 291.927 118.269 293.064 116.861 293.056C115.454 293.048 114.316 291.897 114.324 290.49Z" fill="#6372B5"/>
<path d="M111.845 299.174L122.006 299.232L121.901 317.606L111.74 317.547L111.845 299.174Z" fill="#92ACDA"/>
<path d="M60.7997 326.971L182.94 327.672L182.423 417.856L60.2824 417.154L60.7997 326.971Z" fill="#EF7C4A"/>
<path d="M20.6096 326.782L117.438 327.338L116.922 417.548L20.0928 416.991L20.6096 326.782Z" fill="#F18A68"/>
<path d="M75.7502 341.785L51.0157 341.644C49.3595 341.635 48.0129 340.279 48.0223 338.631C48.0317 336.983 49.3937 335.643 51.0499 335.652L75.7844 335.793C77.4406 335.802 78.7872 337.158 78.7778 338.806C78.7607 340.454 77.4063 341.794 75.7502 341.785Z" fill="#2D3A64"/>
<path d="M367.658 210.453L383.043 407.016C383.043 407.016 384.706 418.934 375.863 418.906C361.328 418.862 303.497 418.493 303.497 418.493C303.497 418.493 314.455 416.079 314.355 410.5C314.238 403.922 296.222 208.188 296.222 208.188L367.658 210.453Z" fill="#7A8AC4"/>
<path d="M298.058 414.89C300.916 414.914 356.9 415.327 371.058 415.23C377.229 415.188 378.341 409.778 378.415 406.265C378.447 404.586 378.246 403.34 378.246 403.34L377.842 398.23L376.819 385.21L375.919 373.707L374.759 358.921L373.787 346.442L362.861 206.769L291.417 204.504C291.417 204.504 299.009 286.419 304.364 346.045C304.96 352.688 305.534 359.059 306.056 365.005C306.231 366.901 306.39 368.759 306.55 370.563C307.043 376.207 307.5 381.386 307.892 385.961C308.102 388.369 308.29 390.614 308.464 392.665C309.144 400.708 309.54 405.841 309.542 406.816C309.539 407.388 309.49 407.914 309.394 408.409C308.193 414.669 299.132 414.896 298.058 414.89Z" fill="#B1C1E5"/>
<path d="M542.05 104.583L500.883 265.826L495.248 287.904L476.073 363.011L127.882 361.011L198.447 102.609L542.05 104.583Z" fill="#B1C1E5"/>
<path d="M542.069 104.217L547.621 106.113L483.662 368.673L476.302 363.013L542.069 104.217Z" fill="#7A8AC4"/>
<path d="M483.686 368.733L137.424 366.998L127.883 361.439L476.297 363.185L483.686 368.733Z" fill="#879BCF"/>
<path d="M286.901 414.926L361.875 415.332L361.855 418.839L286.882 418.433L286.901 414.926Z" fill="#B1C1E5"/>
<path d="M306.194 367.898L306.566 370.614L376.978 385.199L376.068 373.739L375.643 368.294L306.194 367.898Z" fill="#8D9ACE"/>
<g opacity="0.5">
<path opacity="0.5" d="M298.076 414.89C300.939 414.914 357.035 415.327 371.221 415.23C377.404 415.188 378.518 409.796 378.593 406.295L308.511 392.736C309.192 400.754 309.589 405.87 309.591 406.841C309.587 407.412 309.538 407.936 309.442 408.429C308.23 414.67 299.152 414.896 298.076 414.89Z" fill="#8D9ACE"/>
</g>
<path d="M542.051 104.568L198.41 102.595L141.459 310.194L489.015 312.189L542.051 104.568Z" fill="#8D9ACE"/>
<path d="M157.718 301.276L479.477 303.124L491.236 257.458L495.786 239.785L497.638 232.581L509.729 185.65L510.354 183.205L516.74 158.397L519.597 147.297L522.042 137.824L524.028 130.103L527.755 115.632L210.639 113.811L206.556 128.28L204.376 136.001L201.699 145.472L198.572 156.57L177.928 229.687L176.183 235.888L175.369 238.757L161.122 289.237L157.718 301.276Z" fill="#4F5AA5"/>
<path d="M455.715 170.304L458.708 165.936C461.912 161.253 467.329 158.197 472.399 158.221L505.058 158.374L499.294 179.07L476.422 261.194C475.398 264.874 472.034 267.413 468.218 267.395L350.698 266.843C345.102 266.817 341.071 261.48 342.575 256.091L364.203 178.428L440.65 178.787C446.232 178.813 452.192 175.458 455.715 170.304Z" fill="#F49749"/>
<path d="M452.402 145.644C452.905 146.235 452.969 146.885 452.71 147.586C452.71 147.586 452.71 147.594 452.702 147.594C452.223 148.88 450.68 150.313 448.876 151.744C448.643 151.928 448.442 152.096 448.264 152.249C448.217 152.287 448.171 152.333 448.124 152.372C448.085 152.402 448.054 152.433 448.016 152.463C446.333 153.996 446.962 154.356 443.944 157.462C440.499 161.005 438.151 161.048 437.484 160.718C436.917 160.435 438.086 158.551 439.372 156.436C439.435 156.336 439.497 156.229 439.559 156.129C439.731 155.844 439.902 155.56 440.074 155.275C441.587 152.729 441.211 151.521 440.887 147.708C440.619 144.607 436.219 130.376 436.219 130.376L442.778 129.292C442.778 129.292 444.668 140.613 446.824 142.377C447.979 143.313 449.28 143.339 450.39 144.036C450.467 144.083 450.543 144.138 450.62 144.185C451.248 144.607 451.891 145.052 452.402 145.644Z" fill="#F7B17F"/>
<path d="M452.446 145.664C452.95 146.255 453.014 146.904 452.754 147.604C452.754 147.604 452.754 147.611 452.747 147.611C452.165 148.896 450.65 150.319 448.903 151.74C448.678 151.924 448.476 152.1 448.297 152.26C448.25 152.299 448.204 152.344 448.157 152.383C448.118 152.413 448.087 152.444 448.049 152.474C446.362 154.004 446.992 154.364 443.967 157.466C440.513 161.004 438.16 161.046 437.492 160.717C436.923 160.435 438.095 158.553 439.385 156.441C440.05 156.2 443.161 154.967 445.522 151.991C447.525 149.468 448.9 146.245 450.266 144.273C450.413 144.243 450.505 144.229 450.652 144.207C451.289 144.628 451.934 145.074 452.446 145.664Z" fill="#243862"/>
<path d="M399.339 141.265C398.921 143.287 396.027 142.925 392.805 142.114C389.582 141.302 390.339 142.24 385.747 141.703C381.155 141.158 379.778 139.445 379.637 138.758C379.518 138.157 381.791 137.959 384.227 137.694C384.536 137.666 384.837 137.63 385.147 137.594C387.899 137.269 389.93 135.514 392.437 134.087C394.811 132.727 398.387 127.15 398.387 127.15L404.686 127.694C404.686 127.694 401.339 132.68 400.04 134.841C399.28 136.113 399.305 137.807 399.387 139.117C399.443 139.826 399.484 140.55 399.339 141.265Z" fill="#F7B17F"/>
<path d="M392.821 142.136C389.594 141.331 390.353 142.262 385.755 141.729C381.157 141.188 379.779 139.488 379.637 138.807C379.518 138.21 381.794 138.013 384.232 137.75L384.255 137.796C384.255 137.796 387.001 139.751 390.828 139.873C393.952 139.974 397.262 139.114 399.42 139.161C399.46 139.865 399.501 140.591 399.356 141.293C398.938 143.3 396.048 142.941 392.821 142.136Z" fill="#243862"/>
<path d="M423.873 100.967L429.626 116.882L437.133 137.657C437.133 137.657 439.208 137.874 441.204 137.311C443.038 136.792 445.156 135.417 445.156 135.417C445.156 135.417 443.19 113.156 439.321 100.355C438.331 97.0701 437.206 94.4099 435.964 92.9082C429.853 85.5551 423.873 100.967 423.873 100.967Z" fill="#EE7D2C"/>
<path d="M429.985 75.8748C433.346 74.8235 442.089 75.9488 451.568 77.7347C454.19 78.2256 456.842 77.053 458.242 74.7922L482.148 73.1125C482.148 73.1125 489.894 90.6042 485.494 101.683C484.848 103.31 483.449 104.316 481.302 104.337C481.302 104.337 466.866 104.244 462.247 104.207C450.367 104.12 437.163 95.8727 435.451 95.5124C432.644 94.9276 431.479 100.525 428.628 106.379C425.776 112.24 402.025 132.221 402.025 132.221C402.025 132.221 398.402 132.231 396.908 131.656C395.299 131.043 394.718 130.253 394.718 130.253C394.718 130.253 421.258 78.6082 429.985 75.8748Z" fill="#F49749"/>
<path d="M461.178 4.32072C462.961 3.27754 464.69 3.12931 465.746 3.16866C466.478 3.19769 467.219 3.14959 467.945 3.05507C477.056 1.78509 482.442 15.066 482.734 19.0667C483.27 26.4115 487.14 27.5618 492.564 32.2057C503.45 41.5092 500.157 52.1965 494.133 56.1311C490.52 58.4949 484.207 56.0514 484.207 56.0514C484.114 56.1125 466.954 46.28 458.5 41.5346C445.781 39.6187 456.033 7.32837 461.178 4.32072Z" fill="#243862"/>
<path d="M465.635 37.6216C465.596 37.6444 469.804 39.1215 472.637 37.8939C475.299 36.7421 477.339 32.39 477.301 32.3897C476.098 32.326 474.78 31.258 473.809 24.3271L473.291 24.5082L464.627 27.5491C464.627 27.5491 465.23 30.3247 465.618 32.9751C465.94 35.1851 466.108 37.3089 465.635 37.6216Z" fill="#F7B17F"/>
<path d="M464.607 27.539C464.607 27.539 464.942 29.0377 465.421 31.8331C470.392 30.9785 472.553 27.171 473.277 24.4933L464.607 27.539Z" fill="#EE985E"/>
<path d="M463.262 30.273C463.262 30.273 475.095 28.7774 474.043 21.4113C472.998 14.0529 473.818 8.89441 466.226 9.54384C458.626 10.1855 457.561 13.2034 457.317 15.7492C457.073 18.2951 460.161 30.472 463.262 30.273Z" fill="#F7B17F"/>
<path d="M457.747 11.7084C457.747 11.7084 465.275 18.2678 470.433 18.8321C475.583 19.3963 477.552 17.7662 477.552 17.7662C477.552 17.7662 474.535 15.2347 472.736 11.167C472.205 9.97063 471.076 9.13864 469.763 9.01276C466.079 8.66792 459.102 8.46592 457.747 11.7084Z" fill="#243862"/>
<path d="M462.467 11.1791C462.467 11.1791 459.926 13.6092 459.12 15.4271C458.337 17.1755 458.082 21.3708 458.676 23.0451C458.676 23.0451 454.798 15.3309 457.057 11.6154C459.441 7.66891 462.467 11.1791 462.467 11.1791Z" fill="#243862"/>
<path d="M455.64 55.0364C455.813 78.9961 455.598 73.9895 458.193 76.281C458.82 76.8344 460.59 77.1729 462.916 77.346C470.24 77.8912 483.141 76.7819 483.638 75.4265C485.362 70.7444 484.179 69.2752 485.646 62.0887C485.799 61.3253 485.99 60.5004 486.205 59.5985C487.415 54.6651 488.577 52.9984 484.463 45.0258C480.736 37.8054 476.844 31.943 476.488 32.1487C466.463 38.0155 465.693 33.0123 465.693 33.0123C465.693 33.0123 455.555 43.3501 455.64 55.0364Z" fill="#2F539C"/>
<path d="M429.656 116.879L437.16 137.657C437.16 137.657 439.233 137.875 441.229 137.311C443.062 136.792 445.179 135.417 445.179 135.417C445.179 135.417 443.213 113.152 439.345 100.35L429.656 116.879Z" fill="#F49749"/>
<path d="M465.604 33.043C465.604 33.043 455.344 34.7088 454.103 39.1441C452.87 43.5717 448.711 70.4722 448.711 70.4722C448.711 70.4722 451.58 73.3321 454.004 70.9316C456.429 68.5311 461.762 45.7912 461.762 45.7912L465.604 33.043Z" fill="#2F539C"/>
<path d="M462.949 77.3588C470.28 77.9038 483.193 76.7956 483.69 75.4411C485.416 70.7621 484.232 69.2938 485.701 62.1119L482.24 52.1117C482.24 52.1117 482.738 63.2227 479.444 66.1139C476.151 69.0128 466.003 71.6484 464.395 74.0745C463.622 75.2415 463.103 76.4106 462.949 77.3588Z" fill="#243862"/>
<path d="M471.405 72.8131C471.405 72.8131 464.157 71.1527 462.985 71.7875C461.812 72.4147 458.933 74.723 458.563 75.5253C458.2 76.3352 461.173 74.9326 462.142 74.6795C462.769 74.5158 464.404 75.0963 465.221 75.3712C468.637 76.5257 470.737 75.9596 470.737 75.9596L471.405 72.8131Z" fill="#F7B17F"/>
<path d="M476.569 32.1006C476.569 32.1006 486.27 32.773 489.599 37.5042C494.276 44.1542 503.452 72.4239 498.046 76.1428C491.958 80.3352 470.477 77.0426 470.477 77.0426C470.477 77.0426 469.787 73.6844 470.793 72.0702C471.8 70.4559 488.004 67.959 488.757 67.2157C489.51 66.4724 479.528 52.5416 479.546 50.2937C479.556 48.0381 476.569 32.1006 476.569 32.1006Z" fill="#2F539C"/>
<path d="M462.618 73.8026C462.618 73.8026 461.081 75.7488 460.585 75.9761C460.089 76.2034 459.766 76.1469 459.766 76.1469L460.799 74.3123L462.618 73.8026Z" fill="#F7B17F"/>
<path d="M462.976 71.7893L458.539 73.8929C458.539 73.8929 458.722 74.2022 459.271 74.1835C459.812 74.1647 461.191 73.6756 461.191 73.6756L462.976 71.7893Z" fill="#F7B17F"/>
<path d="M425.162 76.659L471.389 76.882L471.384 77.8834L425.567 77.6625L425.162 76.659Z" fill="#243862"/>
<path d="M460.552 77.8322L425.561 77.6467L415.182 51.4467L450.111 51.6396L460.552 77.8322Z" fill="#243862"/>
<path d="M434.463 64.6256C434.205 63.7039 434.743 62.9647 435.663 62.97C436.584 62.9753 437.538 63.7231 437.796 64.6447C438.054 65.5664 437.516 66.3056 436.596 66.3004C435.683 66.2951 434.721 65.5472 434.463 64.6256Z" fill="white"/>
<g opacity="0.5">
<path opacity="0.5" d="M261.313 163.476L271.055 151.152L271.514 150.574L272.056 150.475L316.79 142.465L331.447 224.277L273.457 234.664L260.92 164.674L260.822 164.101L261.313 163.476Z" fill="#8D9ACE"/>
</g>
<path d="M290.569 138.249L290.55 138.829L287.386 209.803L346.16 212.423L349.849 129.454L304.515 127.438L303.966 127.412L303.384 127.872L291.191 137.75L290.569 138.249Z" fill="#8D9ACE"/>
<path d="M329.256 158.787L427.336 164.818C427.537 164.827 427.683 164.998 427.674 165.199L419.781 293.688C419.772 293.889 419.601 294.035 419.4 294.026L321.459 288.003C321.258 287.994 321.112 287.823 321.121 287.622L329.023 158.986C329.031 158.87 329.132 158.778 329.256 158.787Z" fill="#243862"/>
<path d="M328.719 283.991L411.794 289.689C414.282 289.858 416.442 287.976 416.619 285.486L424.353 172.55C424.522 170.061 422.64 167.9 420.152 167.731L337.077 162.033C334.588 161.864 332.429 163.746 332.252 166.236L324.517 279.172C324.349 281.661 326.23 283.815 328.719 283.991Z" fill="#EAF3FA"/>
<path d="M362.051 180.743L414.354 184.314C414.377 184.314 414.401 184.299 414.409 184.269L414.504 183.002C414.504 182.979 414.489 182.957 414.458 182.949L362.155 179.378C362.132 179.378 362.109 179.393 362.101 179.423L362.005 180.69C362.005 180.72 362.028 180.743 362.051 180.743Z" fill="#BECFEC"/>
<path d="M361.294 191.979L413.597 195.55C413.62 195.55 413.643 195.535 413.651 195.505L413.747 194.238C413.747 194.215 413.732 194.193 413.701 194.185L361.398 190.614C361.375 190.614 361.351 190.629 361.343 190.659L361.248 191.926C361.248 191.949 361.271 191.971 361.294 191.979Z" fill="#BECFEC"/>
<path d="M341.684 185.01L413.976 189.932C413.999 189.932 414.022 189.917 414.03 189.887L414.125 188.623C414.126 188.6 414.11 188.578 414.079 188.57L341.788 183.648C341.765 183.648 341.741 183.663 341.733 183.693L341.638 184.957C341.638 184.98 341.661 185.002 341.684 185.01Z" fill="#BECFEC"/>
<path d="M373.826 227.774L409.304 230.209C409.342 230.179 409.366 230.156 409.405 230.126L409.492 228.945C409.461 228.908 409.438 228.885 409.407 228.847L373.929 226.413C373.89 226.442 373.867 226.465 373.828 226.495L373.741 227.683C373.772 227.713 373.795 227.736 373.826 227.774Z" fill="#BECFEC"/>
<path d="M360.598 221.229L409.683 224.583C409.722 224.553 409.746 224.531 409.785 224.501L409.871 223.316C409.841 223.278 409.818 223.255 409.787 223.217L360.702 219.864C360.663 219.893 360.64 219.916 360.601 219.945L360.514 221.131C360.552 221.176 360.568 221.191 360.598 221.229Z" fill="#BECFEC"/>
<path d="M356.867 232.9L409.17 236.47C409.193 236.471 409.217 236.456 409.225 236.426L409.32 235.158C409.32 235.136 409.305 235.113 409.274 235.106L356.971 231.535C356.948 231.534 356.925 231.549 356.917 231.579L356.821 232.847C356.821 232.877 356.836 232.899 356.867 232.9Z" fill="#BECFEC"/>
<path d="M350.69 238.126L408.732 242.088C408.771 242.051 408.795 242.036 408.841 241.999L408.928 240.83C408.89 240.792 408.874 240.769 408.836 240.724L350.786 236.762C350.747 236.799 350.723 236.814 350.677 236.851L350.59 238.02C350.636 238.065 350.659 238.088 350.69 238.126Z" fill="#BECFEC"/>
<path d="M370.442 249.378L407.761 251.938C407.8 251.908 407.823 251.885 407.862 251.848L407.949 250.668C407.919 250.63 407.896 250.607 407.857 250.569L370.538 248.009C370.499 248.039 370.476 248.061 370.437 248.091L370.35 249.272C370.388 249.317 370.404 249.34 370.442 249.378Z" fill="#BECFEC"/>
<path d="M369.685 260.614L407.012 263.174C407.051 263.144 407.074 263.122 407.113 263.092L407.2 261.911C407.161 261.873 407.146 261.851 407.108 261.813L369.789 259.253C369.75 259.283 369.726 259.305 369.687 259.342L369.601 260.523C369.631 260.553 369.647 260.568 369.685 260.614Z" fill="#BECFEC"/>
<path d="M355.753 254.027L407.383 257.556C407.422 257.526 407.446 257.504 407.485 257.466L407.571 256.289C407.533 256.251 407.518 256.228 407.479 256.191L355.849 252.662C355.811 252.692 355.787 252.714 355.748 252.744L355.661 253.921C355.7 253.967 355.715 253.989 355.753 254.027Z" fill="#BECFEC"/>
<path d="M355.93 153.307L401.712 156.113C404.729 156.3 407.037 158.712 406.866 161.503L406.439 168.396C406.397 169.044 405.798 169.534 405.102 169.492L350.911 166.174C350.215 166.131 349.676 165.573 349.719 164.925L350.145 158.032C350.324 155.234 352.913 153.12 355.93 153.307Z" fill="#F18A68"/>
<path d="M272.896 208.508C272.896 208.508 273.859 206.371 274.483 205.361C275.107 204.351 277.751 201.396 278.196 202.071C278.64 202.747 280.407 207.283 279.442 208.546C278.484 209.809 279.484 212.02 274.747 213.323L272.896 208.508Z" fill="#F7B17F"/>
<path d="M220.322 194.742C220.322 194.742 244.45 215.096 253.914 213.28C261.318 211.862 273.02 208.22 273.02 208.22C273.02 208.22 276.09 211.167 275.195 214.678C275.195 214.678 260.224 228.587 249.617 228.618C233.039 228.662 225.266 220.272 225.266 220.272L220.322 194.742Z" fill="#EE7D2C"/>
<path d="M176.744 408.146C176.744 408.146 177.383 419.491 179.579 419.666C179.873 419.691 190.719 419.753 190.719 419.753L204.568 419.756C204.568 419.756 204.494 416.425 200.452 415.691C196.41 414.965 189.649 412.083 187.227 406.722C184.683 401.083 176.744 408.146 176.744 408.146Z" fill="#133D67"/>
<path d="M175.932 408.885C175.932 408.885 180.123 410.317 183.404 410.336C187.063 410.357 190.396 409.377 190.396 409.377C190.396 409.377 191.226 401.713 195.675 384.846C198.009 376.007 201.331 364.635 206.042 350.516C219.084 311.488 223.111 288.636 223.478 286.471C223.494 286.355 223.502 286.301 223.502 286.301L223.463 286.286L184.154 268.712C184.154 268.712 188.722 322.628 182.392 343.277C181.503 346.166 180.743 349.528 180.082 353.177C176.027 375.626 175.932 408.885 175.932 408.885Z" fill="#2C4F96"/>
<path d="M195.67 384.837C198.005 375.998 201.327 364.627 206.039 350.508C219.083 311.481 223.11 288.63 223.478 286.465C223.478 286.403 223.471 286.341 223.463 286.272L184.149 268.698C184.149 268.698 188.717 322.613 182.386 343.262C181.497 346.158 195.67 384.837 195.67 384.837Z" fill="#243862"/>
<path d="M207.606 408.291C207.606 408.291 208.245 419.636 210.441 419.811C210.735 419.836 221.581 419.898 221.581 419.898L235.429 419.901C235.429 419.901 235.356 416.57 231.314 415.836C227.272 415.11 220.511 412.228 218.089 406.867C215.545 401.228 207.606 408.291 207.606 408.291Z" fill="#15457C"/>
<path d="M230.653 270.242C230.653 270.242 230.966 305.169 224.707 348.005C218.439 390.849 220.382 409.062 220.382 409.062C220.382 409.062 216.238 410.385 214.562 410.507C210.301 410.831 205.948 409.459 205.948 409.459C205.948 409.459 197.56 366.516 200.158 345.072C202.748 323.627 188.763 271.366 188.763 271.366L230.653 270.242Z" fill="#2C4F96"/>
<path d="M203.021 188.315L210.7 193.418L217.73 191.47C219.024 189.645 219.384 186.12 219.417 183.064C219.45 180.032 219.171 177.455 219.171 177.455L208.807 172.809L204.937 171.077C204.944 171.139 205.22 174.265 205.256 174.722C205.936 182.825 203.021 188.315 203.021 188.315Z" fill="#F7B17F"/>
<path d="M230.695 279.912C221.063 289.126 184.801 287.355 182.627 277.138C180.452 266.912 185.561 190.243 201.95 185.525C205.355 184.546 223.476 190.53 223.476 190.53C223.476 190.53 226.284 198.012 228.1 207.524C228.453 209.375 229.4 228.979 230.091 247.32C230.414 255.894 230.675 264.198 230.803 270.28C230.918 275.975 230.904 279.712 230.695 279.912Z" fill="#F49749"/>
<path d="M206.03 174.855C208.121 178.431 215.505 181.596 219.419 183.049C219.451 180.019 219.172 177.443 219.172 177.443L208.803 172.8C206.498 172.755 205.095 173.258 206.03 174.855Z" fill="#F5A46D"/>
<path d="M223.079 176.826C223.079 176.826 206.302 181.958 203.269 171.453C200.236 160.949 196.028 154.544 206.611 150.823C217.195 147.102 220.446 150.508 222.306 153.767C224.166 157.026 227.364 175.219 223.079 176.826Z" fill="#F7B17F"/>
<path d="M221.646 152.752C221.646 152.752 220.509 164.941 217.991 164.401C215.474 163.853 212.704 162.708 213.047 166.391C213.397 170.066 210.538 176.36 206.897 176.324C199.095 176.248 190.735 156.178 192.891 152.393C199.124 141.471 230.63 139.44 221.646 152.752Z" fill="#19365E"/>
<path d="M219.026 185.855C218.81 185.761 206.578 180.2 205.144 180.67C203.71 181.133 201.897 185.494 201.897 185.494L223.456 190.491C223.464 190.491 221.781 187.029 219.026 185.855Z" fill="#EE7D2C"/>
<path d="M295.11 245.859L226.038 309.825C224.685 311.08 222.985 311.467 222.265 310.69L219.97 308.218C219.251 307.441 219.766 305.779 221.118 304.525L290.19 240.558C291.543 239.304 293.244 238.917 293.963 239.694L296.258 242.165C296.977 242.942 296.463 244.605 295.11 245.859Z" fill="#224E85"/>
<path d="M256.343 281.889L226.038 309.958C224.685 311.212 222.984 311.599 222.265 310.822L219.97 308.351C219.25 307.573 219.765 305.911 221.118 304.657L251.423 276.588L256.343 281.889Z" fill="#7896CD"/>
<path d="M292.237 168.505C312.74 147.058 346.743 146.297 368.192 166.8C368.475 167.072 368.759 167.345 369.027 167.617C389.657 188.198 390.139 221.579 369.901 242.751C349.398 264.19 315.388 264.958 293.946 244.455C286.924 237.74 282.113 229.577 279.551 220.892C274.269 203.034 278.442 182.93 292.237 168.505ZM296.872 241.4C309.354 253.336 326.451 257.447 342.12 253.869C351.241 251.782 359.874 247.099 366.83 239.825C385.715 220.07 385.008 188.755 365.259 169.87C357.984 162.914 349.152 158.623 339.937 156.952C324.127 154.086 307.228 158.957 295.3 171.438C276.408 191.193 277.115 222.516 296.872 241.4Z" fill="#224E85"/>
<g opacity="0.5">
<g opacity="0.5">
<path opacity="0.5" d="M366.567 239.833C359.61 247.052 350.991 251.684 341.896 253.728C326.279 257.224 309.254 253.063 296.864 241.131C277.252 222.242 276.674 191.036 295.563 171.438C307.494 159.051 324.348 154.263 340.089 157.179C349.263 158.88 358.053 163.189 365.266 170.147C384.87 189.028 385.456 220.227 366.567 239.833Z" fill="#B5CEED"/>
</g>
</g>
<path d="M230.823 270.272C193.154 243.071 196.503 207.084 196.503 207.084C210.282 214.97 223.899 232.308 230.112 247.314C230.434 255.888 230.696 264.19 230.823 270.272Z" fill="#EE7D2C"/>
<path d="M268.354 258.157C271.023 257.562 272.831 255.566 273.205 255.222C273.205 255.222 274.339 255.308 272.999 257.716C272.889 257.916 272.638 258.438 272.45 258.798C272.371 258.952 272.478 259.122 272.648 259.139C274.184 259.267 275.733 258.671 278.694 259.311C279.102 259.399 279.21 260.378 279.192 260.794C279.163 261.495 279.203 262.289 278.375 263.361C277.892 263.989 276.558 264.649 273.575 265.819C272.444 266.264 269.211 265.892 266.192 264.835L263.784 263.698L264.569 259.221L265.178 259.356C266.142 259.557 267.34 258.395 268.354 258.157Z" fill="#F7B17F"/>
<path d="M208.475 190.461C208.475 190.461 174.496 196.648 218.014 246.154C224.971 254.073 262.836 264.61 262.836 264.61C262.836 264.61 266.712 261.369 264.789 258.699C264.789 258.699 238.819 239.515 233.089 236.451C230.515 235.072 223.294 206.084 219.137 199.082C214.981 192.072 208.475 190.461 208.475 190.461Z" fill="#F49749"/>
<path d="M273.809 209.108C273.809 209.108 274.934 206.987 275.157 205.866C275.38 204.746 276.797 201.481 277.38 200.912C277.613 200.681 278.368 200.987 278.455 201.978C278.491 202.412 278.278 203.192 277.894 204.126C277.275 205.646 277.364 207.713 277.152 208.4C276.616 210.107 273.809 209.108 273.809 209.108Z" fill="#F7B17F"/>
</svg>
